<svg version="1.1" id="Layer_1" xmlns="http://www.w3.org/2000/svg" xmlns:xlink="http://www.w3.org/1999/xlink" x="0px" y="0px"
	 width="100%" viewBox="0 0 512 512" enable-background="new 0 0 512 512" xml:space="preserve">
<path fill="#FFFFFF" opacity="1.000000" stroke="none" 
	d="
M82.000000,513.000000 
	C55.012222,513.000000 28.024443,513.000000 1.018332,513.000000 
	C1.018332,342.422821 1.018332,171.845612 1.018332,1.000000 
	C124.021301,1.000000 247.042801,1.000000 370.412476,1.371797 
	C354.610107,6.498438 338.460510,11.256568 322.308746,16.007439 
	C288.302643,26.010004 254.295395,36.008797 220.288605,46.009075 
	C195.361450,53.339333 170.444061,60.702980 145.503876,67.988594 
	C127.027634,73.385925 108.558762,78.814865 90.015038,83.972420 
	C79.054489,87.020874 77.000008,89.379539 77.000008,100.924721 
	C77.000000,233.418060 77.022385,365.911438 76.922981,498.404694 
	C76.918747,504.049011 77.643425,509.056427 82.000000,513.000000 
z"/>
<path fill="#FFFFFF" opacity="1.000000" stroke="none" 
	d="
M381.000000,1.000000 
	C424.973450,1.000000 468.946899,1.000000 512.944458,1.000000 
	C512.944458,171.666672 512.944458,342.333344 512.944458,513.000000 
	C486.238434,513.000000 459.587860,513.000000 432.548950,512.656006 
	C436.062469,509.396729 437.051636,505.408936 437.049469,500.703705 
	C436.988098,366.931366 437.000000,233.159012 437.000000,99.386642 
	C437.000000,98.387100 437.091309,97.377663 436.984802,96.389572 
	C436.135956,88.514374 432.606323,85.637856 425.845551,85.915993 
	C417.363770,86.264938 408.856750,86.000000 400.360626,86.000000 
	C395.273254,86.000000 390.185883,86.000000 385.000000,86.000000 
	C385.000000,61.181858 384.917603,37.034512 385.072479,12.888692 
	C385.101959,8.294070 384.926422,4.090249 381.000000,1.000000 
z"/>
<path fill="#000000" opacity="1.000000" stroke="none" 
	d="
M380.545898,1.000000 
	C384.926422,4.090249 385.101959,8.294070 385.072479,12.888692 
	C384.917603,37.034512 385.000000,61.181858 385.000000,86.000000 
	C390.185883,86.000000 395.273254,86.000000 400.360626,86.000000 
	C408.856750,86.000000 417.363770,86.264938 425.845551,85.915993 
	C432.606323,85.637856 436.135956,88.514374 436.984802,96.389572 
	C437.091309,97.377663 437.000000,98.387100 437.000000,99.386642 
	C437.000000,233.159012 436.988098,366.931366 437.049469,500.703705 
	C437.051636,505.408936 436.062469,509.396729 432.080292,512.656006 
	C315.645782,513.000000 199.291550,513.000000 82.468658,513.000000 
	C77.643425,509.056427 76.918747,504.049011 76.922981,498.404694 
	C77.022385,365.911438 77.000000,233.418060 77.000008,100.924721 
	C77.000008,89.379539 79.054489,87.020874 90.015038,83.972420 
	C108.558762,78.814865 127.027634,73.385925 145.503876,67.988594 
	C170.444061,60.702980 195.361450,53.339333 220.288605,46.009075 
	C254.295395,36.008797 288.302643,26.010004 322.308746,16.007439 
	C338.460510,11.256568 354.610107,6.498438 370.880341,1.371797 
	C374.030609,1.000000 377.061188,1.000000 380.545898,1.000000 
M397.499878,104.000000 
	C296.740662,104.000000 195.981476,104.000000 95.284737,104.000000 
	C95.284737,234.639069 95.284737,364.707764 95.284737,494.714783 
	C203.305649,494.714783 311.041595,494.714783 418.715149,494.714783 
	C418.715149,364.360657 418.715149,234.291977 418.715149,104.000000 
	C411.787842,104.000000 405.143829,104.000000 397.499878,104.000000 
M210.404175,67.997787 
	C190.440948,73.800034 170.477737,79.602287 149.403900,85.727333 
	C222.682465,85.727333 294.717651,85.727333 366.808044,85.727333 
	C366.808044,64.367928 366.808044,43.281715 366.808044,21.877926 
	C360.876587,23.635851 355.209839,25.332199 349.533264,26.994892 
	C318.771301,36.005196 287.992767,44.959301 257.249268,54.032227 
	C241.880325,58.567863 226.573868,63.315235 210.404175,67.997787 
z"/>
<path fill="#FFFFFF" opacity="1.000000" stroke="none" 
	d="
M397.999847,104.000000 
	C405.143829,104.000000 411.787842,104.000000 418.715149,104.000000 
	C418.715149,234.291977 418.715149,364.360657 418.715149,494.714783 
	C311.041595,494.714783 203.305649,494.714783 95.284737,494.714783 
	C95.284737,364.707764 95.284737,234.639069 95.284737,104.000000 
	C195.981476,104.000000 296.740662,104.000000 397.999847,104.000000 
M254.500000,317.000000 
	C282.488403,317.000000 310.476837,317.000000 338.465240,317.000000 
	C356.791016,317.000000 375.116821,317.027893 393.442505,316.984650 
	C399.736084,316.969788 403.107239,312.860199 402.012665,306.759735 
	C400.958862,300.886414 398.107269,299.002075 390.196289,299.001801 
	C301.399597,298.998962 212.602921,299.000000 123.806244,299.000183 
	C122.806664,299.000183 121.746223,298.783844 120.818253,299.042267 
	C117.167542,300.058716 113.131599,300.508087 111.989059,305.252533 
	C110.259697,312.433838 113.900063,316.996124 121.554459,316.997131 
	C165.536301,317.003021 209.518158,317.000000 254.500000,317.000000 
M388.429199,368.000000 
	C390.095306,368.000000 391.761444,368.003235 393.427551,367.999451 
	C399.875397,367.984772 403.260193,363.806549 402.001801,357.417938 
	C401.032715,352.497833 396.857117,350.003510 389.481689,350.003113 
	C301.174744,349.998291 212.867798,349.999969 124.560844,350.000305 
	C123.561165,350.000305 122.545746,349.891174 121.564362,350.026520 
	C115.215324,350.902039 111.015083,355.058411 111.480438,359.935883 
	C112.032356,365.720642 115.155289,368.000000 122.529282,368.000000 
	C210.836227,368.000000 299.143188,368.000000 388.429199,368.000000 
M308.500000,402.000000 
	C245.687592,402.000000 182.875092,402.043945 120.063034,401.897797 
	C116.020378,401.888397 113.466148,403.885223 112.298096,406.766205 
	C111.066841,409.803009 110.920227,413.426422 113.820198,416.426331 
	C117.013702,419.729858 120.949387,419.986176 125.026756,419.986969 
	C212.997375,420.004120 300.968018,420.006683 388.938599,419.959137 
	C391.002838,419.958038 393.091705,419.458771 395.125854,419.000214 
	C399.990143,417.903717 402.923065,414.289734 402.520477,410.065155 
	C402.030457,404.923157 398.767242,402.002808 393.471954,402.002014 
	C365.481293,401.997803 337.490662,402.000000 308.500000,402.000000 
M166.539200,162.032227 
	C162.695282,155.721588 158.813721,149.433472 155.020035,143.092773 
	C152.271194,138.498398 147.674606,136.003464 143.699692,137.106903 
	C139.608353,138.242661 137.001556,142.409378 137.000977,147.838440 
	C136.998657,169.816925 136.967575,191.795471 137.022141,213.773819 
	C137.036346,219.496002 140.764938,223.057358 146.335587,223.000000 
	C152.068390,222.940964 154.984970,219.837479 154.996262,213.732086 
	C155.011353,205.573425 155.000000,197.414734 155.000000,189.256058 
	C155.000000,186.283661 155.000000,183.311279 155.000000,180.338882 
	C158.314621,184.323807 160.710876,188.302597 163.024796,192.328735 
	C166.257568,197.953644 176.579834,199.490387 180.035492,192.574966 
	C182.160110,188.323212 184.939011,184.398392 188.000092,179.383148 
	C188.000092,191.487854 187.903381,202.311203 188.037155,213.131714 
	C188.114670,219.401520 191.864685,223.103302 197.546326,222.999985 
	C203.484924,222.891983 205.998306,219.925766 205.999084,213.003418 
	C206.001541,190.858429 205.887115,168.712448 206.085144,146.569229 
	C206.130539,141.493622 203.706345,138.608505 199.452637,137.272491 
	C194.979492,135.867554 191.476959,138.020233 189.035141,141.833771 
	C187.650497,143.996292 186.437729,146.268250 185.124924,148.477463 
	C180.673767,155.967773 176.212494,163.452072 171.615372,171.173340 
	C169.879745,167.992004 168.423813,165.323364 166.539200,162.032227 
M297.964386,213.607712 
	C298.642853,215.062012 299.237946,216.562607 300.014984,217.962189 
	C302.623718,222.661102 306.463715,224.460175 311.311707,222.823456 
	C315.510712,221.405869 317.093201,218.224243 317.064697,213.700516 
	C316.922943,191.222641 317.018311,168.743317 316.960083,146.264694 
	C316.956055,144.713928 316.799683,142.886871 315.991150,141.667801 
	C313.745941,138.282532 310.684875,136.146210 306.271851,137.290604 
	C301.344849,138.568298 299.085114,141.968048 299.029144,146.830765 
	C298.926910,155.716858 299.000092,164.604980 299.000092,174.854218 
	C293.253387,163.493637 288.206329,153.347290 282.994598,143.286240 
	C280.481903,138.435532 275.830444,135.839294 271.878693,137.110764 
	C268.239105,138.281784 264.785980,142.033676 264.869781,147.671692 
	C265.191406,169.313156 264.993378,190.962219 265.003876,212.608459 
	C265.007172,219.388138 268.244598,223.033035 274.169739,223.000015 
	C280.339752,222.965637 282.997559,219.927856 282.999420,212.898346 
	C283.001831,203.761810 283.000000,194.625259 283.000000,185.488724 
	C283.244110,185.483032 283.488251,185.477341 283.732361,185.471634 
	C288.319946,194.646530 292.907501,203.821426 297.964386,213.607712 
M376.990875,144.207779 
	C374.115143,138.300964 370.772034,136.077835 366.172424,137.013641 
	C361.743225,137.914780 359.000580,142.252655 359.000275,148.363708 
	C358.999451,164.028748 359.021698,179.693848 358.988220,195.358810 
	C358.976501,200.841812 355.519379,204.965088 351.061737,204.999908 
	C345.831207,205.040756 343.017975,201.767471 343.002136,195.598633 
	C342.990997,191.265778 343.000000,186.932861 343.000000,182.599976 
	C343.000000,170.767868 343.234436,158.929398 342.913849,147.105988 
	C342.714905,139.768997 339.525818,137.595825 333.541931,137.084152 
	C328.454224,136.649109 325.001526,140.979645 325.000763,147.016876 
	C324.998596,164.181763 324.851959,181.348984 325.120850,198.509659 
	C325.176819,202.080917 326.172333,205.929703 327.772278,209.132339 
	C333.693542,220.985123 345.403473,225.791367 359.579071,221.888748 
	C369.136383,219.257568 376.903107,209.302475 376.974335,197.078873 
	C377.075378,179.747925 376.999603,162.415955 376.990875,144.207779 
M214.000000,154.521591 
	C214.000000,174.495514 213.981888,194.469467 214.012527,214.443344 
	C214.020355,219.550354 216.774078,222.879303 221.392120,222.953613 
	C230.877258,223.106247 240.368698,223.116486 249.853226,222.945969 
	C254.086395,222.869827 256.940796,219.532669 257.000000,215.314346 
	C257.092102,208.754318 253.641739,205.164780 246.907623,205.020660 
	C241.990646,204.915421 237.069595,205.000046 232.311493,205.000046 
	C232.311493,199.298874 232.311493,194.229996 232.311493,188.999954 
	C238.099564,188.999954 243.578522,189.076889 249.054260,188.977005 
	C253.941025,188.887878 256.618073,185.882462 257.047607,181.001053 
	C257.682526,173.784958 252.902817,171.401718 246.928009,171.057632 
	C242.022934,170.775131 237.088638,171.000046 232.303253,171.000046 
	C232.303253,165.313889 232.303253,160.246109 232.303253,155.000000 
	C237.581299,155.000000 242.557343,155.008667 247.533371,154.997879 
	C254.174179,154.983505 256.585419,152.266373 257.124115,146.032150 
	C257.590271,140.636871 253.019348,136.999710 247.476715,136.999954 
	C241.817444,137.000214 236.153442,137.149445 230.499832,136.970413 
	C216.617386,136.530838 212.931625,137.828903 214.000000,154.521591 
z"/>
<path fill="#FFFFFF" opacity="1.000000" stroke="none" 
	d="
M210.821655,67.982315 
	C226.573868,63.315235 241.880325,58.567863 257.249268,54.032227 
	C287.992767,44.959301 318.771301,36.005196 349.533264,26.994892 
	C355.209839,25.332199 360.876587,23.635851 366.808044,21.877926 
	C366.808044,43.281715 366.808044,64.367928 366.808044,85.727333 
	C294.717651,85.727333 222.682465,85.727333 149.403900,85.727333 
	C170.477737,79.602287 190.440948,73.800034 210.821655,67.982315 
z"/>
<path fill="#000000" opacity="1.000000" stroke="none" 
	d="
M254.000000,317.000000 
	C209.518158,317.000000 165.536301,317.003021 121.554459,316.997131 
	C113.900063,316.996124 110.259697,312.433838 111.989059,305.252533 
	C113.131599,300.508087 117.167542,300.058716 120.818253,299.042267 
	C121.746223,298.783844 122.806664,299.000183 123.806244,299.000183 
	C212.602921,299.000000 301.399597,298.998962 390.196289,299.001801 
	C398.107269,299.002075 400.958862,300.886414 402.012665,306.759735 
	C403.107239,312.860199 399.736084,316.969788 393.442505,316.984650 
	C375.116821,317.027893 356.791016,317.000000 338.465240,317.000000 
	C310.476837,317.000000 282.488403,317.000000 254.000000,317.000000 
z"/>
<path fill="#000000" opacity="1.000000" stroke="none" 
	d="
M387.939667,368.000000 
	C299.143188,368.000000 210.836227,368.000000 122.529282,368.000000 
	C115.155289,368.000000 112.032356,365.720642 111.480438,359.935883 
	C111.015083,355.058411 115.215324,350.902039 121.564362,350.026520 
	C122.545746,349.891174 123.561165,350.000305 124.560844,350.000305 
	C212.867798,349.999969 301.174744,349.998291 389.481689,350.003113 
	C396.857117,350.003510 401.032715,352.497833 402.001801,357.417938 
	C403.260193,363.806549 399.875397,367.984772 393.427551,367.999451 
	C391.761444,368.003235 390.095306,368.000000 387.939667,368.000000 
z"/>
<path fill="#000000" opacity="1.000000" stroke="none" 
	d="
M309.000000,402.000000 
	C337.490662,402.000000 365.481293,401.997803 393.471954,402.002014 
	C398.767242,402.002808 402.030457,404.923157 402.520477,410.065155 
	C402.923065,414.289734 399.990143,417.903717 395.125854,419.000214 
	C393.091705,419.458771 391.002838,419.958038 388.938599,419.959137 
	C300.968018,420.006683 212.997375,420.004120 125.026756,419.986969 
	C120.949387,419.986176 117.013702,419.729858 113.820198,416.426331 
	C110.920227,413.426422 111.066841,409.803009 112.298096,406.766205 
	C113.466148,403.885223 116.020378,401.888397 120.063034,401.897797 
	C182.875092,402.043945 245.687592,402.000000 309.000000,402.000000 
z"/>
<path fill="#000000" opacity="1.000000" stroke="none" 
	d="
M166.753540,162.343475 
	C168.423813,165.323364 169.879745,167.992004 171.615372,171.173340 
	C176.212494,163.452072 180.673767,155.967773 185.124924,148.477463 
	C186.437729,146.268250 187.650497,143.996292 189.035141,141.833771 
	C191.476959,138.020233 194.979492,135.867554 199.452637,137.272491 
	C203.706345,138.608505 206.130539,141.493622 206.085144,146.569229 
	C205.887115,168.712448 206.001541,190.858429 205.999084,213.003418 
	C205.998306,219.925766 203.484924,222.891983 197.546326,222.999985 
	C191.864685,223.103302 188.114670,219.401520 188.037155,213.131714 
	C187.903381,202.311203 188.000092,191.487854 188.000092,179.383148 
	C184.939011,184.398392 182.160110,188.323212 180.035492,192.574966 
	C176.579834,199.490387 166.257568,197.953644 163.024796,192.328735 
	C160.710876,188.302597 158.314621,184.323807 155.000000,180.338882 
	C155.000000,183.311279 155.000000,186.283661 155.000000,189.256058 
	C155.000000,197.414734 155.011353,205.573425 154.996262,213.732086 
	C154.984970,219.837479 152.068390,222.940964 146.335587,223.000000 
	C140.764938,223.057358 137.036346,219.496002 137.022141,213.773819 
	C136.967575,191.795471 136.998657,169.816925 137.000977,147.838440 
	C137.001556,142.409378 139.608353,138.242661 143.699692,137.106903 
	C147.674606,136.003464 152.271194,138.498398 155.020035,143.092773 
	C158.813721,149.433472 162.695282,155.721588 166.753540,162.343475 
z"/>
<path fill="#000000" opacity="1.000000" stroke="none" 
	d="
M297.729736,213.302002 
	C292.907501,203.821426 288.319946,194.646530 283.732361,185.471634 
	C283.488251,185.477341 283.244110,185.483032 283.000000,185.488724 
	C283.000000,194.625259 283.001831,203.761810 282.999420,212.898346 
	C282.997559,219.927856 280.339752,222.965637 274.169739,223.000015 
	C268.244598,223.033035 265.007172,219.388138 265.003876,212.608459 
	C264.993378,190.962219 265.191406,169.313156 264.869781,147.671692 
	C264.785980,142.033676 268.239105,138.281784 271.878693,137.110764 
	C275.830444,135.839294 280.481903,138.435532 282.994598,143.286240 
	C288.206329,153.347290 293.253387,163.493637 299.000092,174.854218 
	C299.000092,164.604980 298.926910,155.716858 299.029144,146.830765 
	C299.085114,141.968048 301.344849,138.568298 306.271851,137.290604 
	C310.684875,136.146210 313.745941,138.282532 315.991150,141.667801 
	C316.799683,142.886871 316.956055,144.713928 316.960083,146.264694 
	C317.018311,168.743317 316.922943,191.222641 317.064697,213.700516 
	C317.093201,218.224243 315.510712,221.405869 311.311707,222.823456 
	C306.463715,224.460175 302.623718,222.661102 300.014984,217.962189 
	C299.237946,216.562607 298.642853,215.062012 297.729736,213.302002 
z"/>
<path fill="#000000" opacity="1.000000" stroke="none" 
	d="
M376.995148,144.646088 
	C376.999603,162.415955 377.075378,179.747925 376.974335,197.078873 
	C376.903107,209.302475 369.136383,219.257568 359.579071,221.888748 
	C345.403473,225.791367 333.693542,220.985123 327.772278,209.132339 
	C326.172333,205.929703 325.176819,202.080917 325.120850,198.509659 
	C324.851959,181.348984 324.998596,164.181763 325.000763,147.016876 
	C325.001526,140.979645 328.454224,136.649109 333.541931,137.084152 
	C339.525818,137.595825 342.714905,139.768997 342.913849,147.105988 
	C343.234436,158.929398 343.000000,170.767868 343.000000,182.599976 
	C343.000000,186.932861 342.990997,191.265778 343.002136,195.598633 
	C343.017975,201.767471 345.831207,205.040756 351.061737,204.999908 
	C355.519379,204.965088 358.976501,200.841812 358.988220,195.358810 
	C359.021698,179.693848 358.999451,164.028748 359.000275,148.363708 
	C359.000580,142.252655 361.743225,137.914780 366.172424,137.013641 
	C370.772034,136.077835 374.115143,138.300964 376.995148,144.646088 
z"/>
<path fill="#000000" opacity="1.000000" stroke="none" 
	d="
M214.000000,154.027008 
	C212.931625,137.828903 216.617386,136.530838 230.499832,136.970413 
	C236.153442,137.149445 241.817444,137.000214 247.476715,136.999954 
	C253.019348,136.999710 257.590271,140.636871 257.124115,146.032150 
	C256.585419,152.266373 254.174179,154.983505 247.533371,154.997879 
	C242.557343,155.008667 237.581299,155.000000 232.303253,155.000000 
	C232.303253,160.246109 232.303253,165.313889 232.303253,171.000046 
	C237.088638,171.000046 242.022934,170.775131 246.928009,171.057632 
	C252.902817,171.401718 257.682526,173.784958 257.047607,181.001053 
	C256.618073,185.882462 253.941025,188.887878 249.054260,188.977005 
	C243.578522,189.076889 238.099564,188.999954 232.311493,188.999954 
	C232.311493,194.229996 232.311493,199.298874 232.311493,205.000046 
	C237.069595,205.000046 241.990646,204.915421 246.907623,205.020660 
	C253.641739,205.164780 257.092102,208.754318 257.000000,215.314346 
	C256.940796,219.532669 254.086395,222.869827 249.853226,222.945969 
	C240.368698,223.116486 230.877258,223.106247 221.392120,222.953613 
	C216.774078,222.879303 214.020355,219.550354 214.012527,214.443344 
	C213.981888,194.469467 214.000000,174.495514 214.000000,154.027008 
z"/>
</svg>