<?xml version="1.0" encoding="UTF-8"?>
<svg version="1.1" viewBox="0 0 1372 1364" width="343" height="341" xmlns="http://www.w3.org/2000/svg">
<path transform="translate(0)" d="m0 0h1372v1364h-1372z"/>
<path transform="translate(922,381)" d="m0 0h9l14 4 19 7 17 5 19 7 11 2 11 1 5 3 6 9 23 14 25 16 16 11 14 11 13 12 7 8 13 16 12 17 9 15 14 26 13 30 9 23 12 36 6 23 7 33 4 6 17 10 13 8 28 22 11 8 9 12 5 5v3l-5-1-10-6-16-11-20-14-14-9-5-2 9 12 7 12 12 29 8 21 8 18 3 14 1 16-4-2-3-8-5-17-1-8h-6l-1-2-2-14-6-10-5-8-10-24-6-11-5-5 4 15 7 21 6 22v5l-1 5 6 13-1 7-5 1-6-9-6-14-16-47-1-2-2 16-2 21-1 3h-30l4-7 8-16 5-19 1-6 1-23v-13l-2-9-8-7-19-10-16-8-20-11-21-8-24-7-24-9-20-9-49-19-36-12-31-8-26-4-9-3-4-3-13-4-84-15-48-7-40-4-34-3-20-2-14 1-7 10-4 6-10 11-11 9-9 6-5 3-4 28-1 10-1 2h-2l-1-3-1-17v-11l2-14 5-13 6-8 6-5 3 1-1 5-6 10-2 6 6-7 9-13 9-14 2-4h-35l-2-3-16-3-16-4-1-1v-5l1-1h40l18 1h21l5-5 18-27 10-14 12-13 10-10 8-7 21-21h-7v-4l8-6 22-11 27-12 19-7 23-7 28-6 26-3 57-2-9-6-1-3z"/>
<path transform="translate(922,381)" d="m0 0h9l14 4 19 7 17 5 19 7 11 2 11 1 5 3 6 9 23 14 25 16 16 11 14 11 13 12 7 8 13 16 12 17 9 15 14 26 13 30 9 23 12 36 6 23 7 33 4 6 17 10 13 8 28 22 11 8 9 12 5 5v3l-5-1-10-6-16-11-20-14-14-9-5-2 9 12 7 12 12 29 8 21 8 18 3 14 1 16-4-2-3-8-5-17-1-8h-6l-1-2-2-14-6-10-5-8-10-24-6-11-5-5 4 15 7 21 6 22v5l-1 5 6 13-1 7-5 1-6-9-6-14-16-47-1-2-2 16-2 21-1 3h-30l4-7 8-16 5-19 1-6 1-23v-13l-2-9-8-7-19-10-16-8-20-11-21-8-24-7-24-9-20-9-49-19-36-12-31-8-26-4-9-3-4-3-13-4-84-15-48-7-40-4-34-3-20-2-14 1-7 10-4 6-10 11-11 9-9 6-5 3-4 28-1 10-1 2h-2l-1-3-1-17v-11l2-14 5-13 6-8 6-5 3 1-1 5-6 10-2 6 6-7 9-13 9-14 2-4h-35l-2-3-16-3-16-4-1-1v-5l1-1h40l18 1h21l5-5 18-27 10-14 12-13 10-10 8-7 21-21h-7v-4l8-6 22-11 27-12 19-7 23-7 28-6 26-3 57-2-9-6-1-3zm-35 26-21 2-24 4-24 5-27 7-21 8-16 9-14 11-11 10-8 7-3 2v2l-4 2-11 11-11 14-14 19-13 18-7 10v2l39 4 52 5 52 7 36 6 52 11 64 15 29 8 43 13 40 14 27 12 15 7 20 9 36 16 29 14 15 9h1l-1-15-6-29-10-33-11-28-11-23-11-19-12-19-12-16-10-13-8-10-9-10-7-7-19-14-21-13-22-13-21-10-27-11-15-5-8-2-25-2-24-1z" fill="#BEBEBE"/>
<path transform="translate(968,717)" d="m0 0h152l4 1 1 2v269l-2 2h-945l-1-1v-271l34-1h118l6 1 1 2v7l-18 1h-31l-99-1v253l926-1v-252h-146l-1-1v-9z" fill="#BEBEBE"/>
<path transform="translate(962,421)" d="m0 0 4 1v18h5l2 6-2 12-4 2v8l1 3 5 2 18 6 24 7 8 3v3l-24 8h19v2l-17 2-36 5 5 7 12 8 11 11 1 4-3 1 4 7 4 5 1 4-10-1-35-9-19-7-8-3h-6l-11 7-13 10-10 8-5 3h-3l1-5 5-13-1-6-2-5 1-5 3-1 5 1 6-9 5-13 5-8v-4l-13-9-15-11-13-10v-3h36l10 3 9 5h5l8-9 7-11 11-17z" fill="#BEBEBE"/>
<path transform="translate(436,829)" d="m0 0h19l10 4 6 4 8 7 7 10 5 12v18l-4 13-4 8-9 10-8 5-9 3-6 1h-21l-11-4-6-4-8-8-8-16-2-8v-17l4-11 6-9 7-8 12-7z" fill="#BEBEBE"/>
<path transform="translate(830,829)" d="m0 0h15l9 2 11 6 10 9 7 11 3 8v18l-3 12-6 11-8 9-10 6-10 3h-21l-10-3-10-6-5-4-7-10-5-11-2-9v-8l3-11 6-12 11-12 9-5z" fill="#BEBEBE"/>
<path transform="translate(677,830)" d="m0 0h36l10 2 9 5 9 7 7 7 6 12 1 6v10l-3 15-7 14-7 7-12 6-14 3h-34l-1-1z" fill="#BEBEBE"/>
<path transform="translate(586,630)" d="m0 0 3 1-1 14-3 12-5 9-7 6-8 3 22 2 9 4 8 7 4 7v15l-3 12-2 4-5 3 2 5 8 19 7 11v6l-4 1h-20l-7-10-9-19-2-2-1 4v20l-2 6-6 1-17-1-1-2v-45l-1-16v-14l1-16 1-1 12-1-6-4v-8l4-1 8 2h7l5-10 7-23z" fill="#BEBEBE"/>
<path transform="translate(653,567)" d="m0 0 8 2 5 5 6 12 8 18 26-1h57l28 3 29 5 59 12 22 6 49 16 43 15 31 12 24 11 3 2v3l-7-1-28-11-58-19-58-17-21-5-47-8-39-5-46-4h-45l-49 6h-9l-8-8 1-4 16-5 3-5 1-8-3-17-2-9z" fill="#BEBEBE"/>
<path transform="translate(783,675)" d="m0 0h23l14 2 8 5 6 7 3 7v9l-1 6v8l5 10 1 4v12l-3 10-8 9-9 4-12 2h-29v-26l-1-24v-41l1-3z" fill="#BEBEBE"/>
<path transform="translate(908,675)" d="m0 0 4 1 15 39 11 26 9 21 1 9h-22l-7-10-3-5-27-1-2 7-4 8h-27l1-5 10-25 7-18 6-13 10-25 4-8z" fill="#BEBEBE"/>
<path transform="translate(472,676)" d="m0 0h17l3 5 22 55 9 21 4 13-3 1h-19l-5-5-5-9v-2l-27 1-7 14h-26l-1-3 10-24 8-20 10-23z" fill="#BEBEBE"/>
<path transform="translate(663,676)" d="m0 0h16l5 10 22 54 10 24v7h-20l-6-5-5-10h-27l-6 13-1 1h-26l1-6 10-25 7-18 9-21 8-19z" fill="#BEBEBE"/>
<path transform="translate(368,676)" d="m0 0h23l16 1 10 5 7 7 4 9v16l-4 9-7 7-8 5-3 1h-13v34l-2 1h-21l-1-1-2-51v-36z" fill="#BEBEBE"/>
<path transform="translate(962,829)" d="m0 0h19l11 4 9 7-1 5-6 7-6-2-8-4h-18l-9 3-9 8-4 9-1 5v11l3 9 6 8 5 4 10 4h17l9-3 4-4-1-10h-23l-3-1-1-2v-13l7-1h35l2 2 1 6v22l-4 7-8 7-12 6-5 1h-18l-16-4-8-5-7-7-7-15-4-16v-9l5-13 8-11 8-7 12-6z" fill="#BEBEBE"/>
<path transform="translate(293,829)" d="m0 0h15l1 1v38l34 1v-40h15l1 1v87l-2 7h-12l-3-2 1-37h-34l1 25-1 13-1 1h-8l-7-1z" fill="#BEBEBE"/>
<path transform="translate(833,844)" d="m0 0 13 1 9 4 8 7 5 9 1 4v16l-4 10-7 8-10 5-5 1h-9l-8-2-8-4-9-9-4-9v-15l4-10 7-8 10-6z"/>
<path transform="translate(439,844)" d="m0 0h7l13 4 9 7 5 9 2 7v11l-3 10-4 6-8 7-7 3-5 1h-10l-11-4-8-6-6-8-2-6v-18l4-8 8-8 12-6z"/>
<path transform="translate(767,467)" d="m0 0 4 2 7 12 6 8 4 6 17-4 16-3 4 1-2 4-11 8-5 10-4-2-4 1-5 3 1 4 9 12-1 3-16-4-5-1-9 14-7 10h-2l-3-10-3-11-4-5-10-8-8-6-14-9-2-4 2-1h34l1-7 3-1 2 1 3-14 1-8z" fill="#BEBEBE"/>
<path transform="translate(755,645)" d="m0 0 4 4 6 13-1 3-17 7-7 2 3 1 16 1 2 7v85l-3 3h-21l-1-2v-26l-1-19v-16l1-34-4-13v-5l16-7z" fill="#BEBEBE"/>
<path transform="translate(1097,554)" d="m0 0 5 5 7 10 4 1 18-6 10-3v4l-5 7-4 10-8 2-1 7 3 8 5 4 5 18v2l-3 1-16-8-5-4-5-5-2-1-1 6-10 18-4 1-2-7-3-19-1-8 2-4-7-3-10-6 1-7-4-2-2-3v-4l10 2 21 3-1-4v-10z" fill="#BEBEBE"/>
<path transform="translate(693,846)" d="m0 0h19l11 4 6 4 5 5 4 7 1 6v9l-2 9-5 9-8 6-13 4h-18l-1-15v-24z"/>
<path transform="translate(521,828)" d="m0 0 59 1v16l-22 1 1 13v18l-1 34-1 12h-14l-1-16-1-61-21-1v-16z" fill="#BEBEBE"/>
<path transform="translate(614,568)" d="m0 0 3 1-4 6-10 9-13 12-12 18-13 20-7 9-8 9-10 6-2 1h-7l-5-6-1-4 9 1 1-2-4-1 2-2 9-1 8-4 5-6 11-21 11-14 10-10 22-18z" fill="#BEBEBE"/>
<path transform="translate(591,573)" d="m0 0h3l-2 4-10 8-13 9-24 15-16 8-9 3-10 1-5-2-3-3v-3l18-2 13-5 24-14 27-15z" fill="#BEBEBE"/>
<path transform="translate(806,732)" d="m0 0h8l2 2v11l-2 2h-6l-2-3z"/>
<path transform="translate(572,700)" d="m0 0h7l3 2 1 8-6 4h-5l-1-13z"/>
<path transform="translate(1127,627)" d="m0 0 4 2 12 12 8 7 20 20 8 7 5 6-4-2-6-5-24-24-8-7-15-15z" fill="#BEBEBE"/>
<path transform="translate(395,700)" d="m0 0h6l2 5-3 7-6-1-1-2v-6z"/>
<path transform="translate(805,700)" d="m0 0h5l2 2v6l-2 2-5-1z"/>
<path transform="translate(669,723)" d="m0 0 4 1 2 3-1 4-1 1h-5z"/>
<path transform="translate(901,722)" d="m0 0h3l2 5v4l-6 1-1-4z"/>
<path transform="translate(480,723)" d="m0 0 3 1 2 6-3 2-5-1 1-5z"/>
</svg>
